<svg width="24" height="25" viewBox="0 0 24 25" fill="none" xmlns="http://www.w3.org/2000/svg">
<g clip-path="url(#clip0_6502_31544)">
<path opacity="0.14" fill-rule="evenodd" clip-rule="evenodd" d="M12 18.5C16.9706 18.5 21 16.4853 21 14C21 11.5147 16.9706 9.5 12 9.5C7.02944 9.5 3 11.5147 3 14C3 16.4853 7.02944 18.5 12 18.5Z" fill="#4EF2FF"/>
<path opacity="0.14" fill-rule="evenodd" clip-rule="evenodd" d="M12 12.5C16.9706 12.5 21 10.4853 21 8C21 5.51472 16.9706 3.5 12 3.5C7.02944 3.5 3 5.51472 3 8C3 10.4853 7.02944 12.5 12 12.5Z" fill="#4EF2FF"/>
<path d="M12 18.5C16.9706 18.5 21 16.4853 21 14V19.5C21 21.7091 16.9706 23.5 12 23.5M12 18.5C7.02944 18.5 3 16.4853 3 14V19.5C3 21.7091 7.02944 23.5 12 23.5M12 18.5V23.5M7 22.8264V17.7422M17 22.8264V17.7422" stroke="#4EF2FF" stroke-width="2" stroke-linecap="round" stroke-linejoin="round"/>
<path d="M21 9C21 11.4853 16.9706 13.5 12 13.5M21 9C21 6.51472 16.9706 4.5 12 4.5C7.02944 4.5 3 6.51472 3 9M21 9V14.5C21 16.7091 16.9706 18.5 12 18.5M12 13.5C7.02944 13.5 3 11.4853 3 9M12 13.5V18.5M3 9V14.5C3 16.7091 7.02944 18.5 12 18.5M7 17.8264V12.7422M17 17.8264V12.7422" stroke="#4EF2FF" stroke-width="2" stroke-linecap="round" stroke-linejoin="round"/>
</g>
<defs>
<clipPath id="clip0_6502_31544">
<rect width="24" height="24" fill="white" transform="translate(0 0.5)"/>
</clipPath>
</defs>
</svg>
