<svg width="226" height="168" viewBox="0 0 226 168" fill="none" xmlns="http://www.w3.org/2000/svg">
<path opacity="0.15" d="M5.63631 90.1498C-14.1456 48.5557 22.8057 14.4099 44.6006 6.45439C109.432 -17.2102 199.193 24.2439 225.936 130.071C216.938 143.521 204.942 152.658 199.193 155.703C192.498 132.822 180.948 105.07 161.954 90.1498C169.952 113.575 174.7 143.268 171.451 166.278C154.255 168.816 125.604 168.053 118.943 166.278C118.943 114.844 90.9741 71.4477 65.4814 49.6222C65.4814 49.6222 124.215 56.4745 140.673 97.7998C140.673 88.9586 137.211 49.6222 89.2246 27.797C138.211 34.6491 160.204 55.967 178.639 80.8071C173.192 31.4474 115.668 14.003 87.5866 11.4507C72.4824 10.9907 57.3287 14.3251 43.4876 22.214C-30.106 64.1601 75.1281 144.094 68.456 64.9564C87.5896 85.0316 106.061 117.052 109.408 154.329C93.9508 140.785 67.3733 130.906 50.6351 124.684C48.6384 123.942 46.7815 123.252 45.1003 122.614C18.3745 112.468 9.73744 98.7728 5.63631 90.1498Z" fill="#979BFF"/>
</svg>
