<svg width="25" height="25" viewBox="0 0 25 25" fill="none" xmlns="http://www.w3.org/2000/svg">
<g opacity="0.14">
<path d="M8.33333 10.4167C10.0592 10.4167 11.4583 9.01758 11.4583 7.29169C11.4583 5.5658 10.0592 4.16669 8.33333 4.16669C6.60744 4.16669 5.20833 5.5658 5.20833 7.29169C5.20833 9.01758 6.60744 10.4167 8.33333 10.4167Z" fill="#C2C2C2"/>
<path d="M3.125 18.75C3.125 15.8735 5.45685 13.5417 8.33333 13.5417C11.2098 13.5417 13.5417 15.8735 13.5417 18.75V20.8334H3.125V18.75Z" fill="#C2C2C2"/>
</g>
<path d="M13.5417 20.8334V18.75C13.5417 15.8735 11.2098 13.5417 8.33333 13.5417C5.45685 13.5417 3.125 15.8735 3.125 18.75V20.8334H13.5417ZM13.5417 20.8334H21.875V19.7917C21.875 16.7234 19.5431 14.5834 16.6667 14.5834C15.1945 14.5834 13.8649 15.2349 12.9176 16.2824M11.4583 7.29169C11.4583 9.01758 10.0592 10.4167 8.33333 10.4167C6.60744 10.4167 5.20833 9.01758 5.20833 7.29169C5.20833 5.5658 6.60744 4.16669 8.33333 4.16669C10.0592 4.16669 11.4583 5.5658 11.4583 7.29169ZM18.75 9.37502C18.75 10.5256 17.8173 11.4584 16.6667 11.4584C15.5161 11.4584 14.5833 10.5256 14.5833 9.37502C14.5833 8.22443 15.5161 7.29169 16.6667 7.29169C17.8173 7.29169 18.75 8.22443 18.75 9.37502Z" stroke="#C2C2C2" stroke-width="2" stroke-linecap="round" stroke-linejoin="round"/>
</svg>
