<svg width="25" height="25" viewBox="0 0 25 25" fill="none" xmlns="http://www.w3.org/2000/svg">
<path opacity="0.14" d="M19.7917 16.8748V10.1854L16.2154 6.21232L16.2154 6.21231C14.9283 4.78235 14.2847 4.06737 13.5267 3.80342C12.861 3.57158 12.1365 3.57163 11.4708 3.80357C10.7129 4.06764 10.0694 4.78271 8.78248 6.21286L8.78248 6.21287L5.20837 10.1847V16.8748C5.20837 18.625 5.20837 19.5001 5.54898 20.1686C5.84858 20.7566 6.32665 21.2346 6.91465 21.5342C7.58313 21.8748 8.45821 21.8748 10.2084 21.8748H14.7917C16.5419 21.8748 17.417 21.8748 18.0854 21.5342C18.6734 21.2346 19.1515 20.7566 19.4511 20.1686C19.7917 19.5001 19.7917 18.625 19.7917 16.8748Z" fill="#C2C2C2"/>
<path d="M5.20833 10.1849V16.875C5.20833 18.6252 5.20833 19.5003 5.54894 20.1687C5.84854 20.7568 6.32661 21.2348 6.91461 21.5344C7.58309 21.875 8.45817 21.875 10.2083 21.875H14.7917C16.5418 21.875 17.4169 21.875 18.0854 21.5344C18.6734 21.2348 19.1515 20.7568 19.4511 20.1687C19.7917 19.5003 19.7917 18.6252 19.7917 16.875V5.20836M21.875 12.5L16.2154 6.2125C14.9282 4.78254 14.2846 4.06756 13.5267 3.8036C12.861 3.57176 12.1364 3.57182 11.4708 3.80375C10.7129 4.06782 10.0694 4.7829 8.78244 6.21305L3.125 12.5" stroke="#C2C2C2" stroke-width="2" stroke-linecap="round" stroke-linejoin="round"/>
</svg>
