<svg width="195" height="145" viewBox="0 0 195 145" fill="none" xmlns="http://www.w3.org/2000/svg">
<path opacity="0.15" d="M4.86424 77.8011C-12.2079 41.9045 19.6817 12.4361 38.4912 5.57027C94.4419 -14.8527 171.908 20.923 194.987 112.254C187.222 123.862 176.869 131.747 171.908 134.375C166.129 114.628 156.162 90.6777 139.769 77.8011C146.672 98.0178 150.77 123.643 147.966 143.501C133.125 145.691 108.399 145.033 102.65 143.501C102.65 99.1129 78.5125 61.6608 56.5117 42.825C56.5117 42.825 107.2 48.7387 121.404 84.4032C121.404 76.773 118.416 42.825 77.0026 23.9894C119.279 29.9029 138.26 48.3006 154.169 69.7382C149.468 27.1397 99.8234 12.0848 75.589 9.88217C62.5537 9.48518 49.4758 12.3629 37.5307 19.1711C-25.9821 55.3714 64.8371 124.356 59.0789 56.0587C75.5915 73.3839 91.5326 101.018 94.4212 133.189C81.0814 121.501 58.1445 112.975 43.6991 107.605C41.9759 106.964 40.3734 106.369 38.9224 105.818C15.8576 97.0625 8.4036 85.2429 4.86424 77.8011Z" fill="white"/>
</svg>
