<svg width="36" height="36" viewBox="0 0 36 36" fill="none" xmlns="http://www.w3.org/2000/svg">
<path d="M0 18C0 11.6994 0 8.54911 1.22618 6.14261C2.30475 4.02578 4.02578 2.30475 6.14261 1.22618C8.54911 0 11.6994 0 18 0C24.3006 0 27.4509 0 29.8574 1.22618C31.9742 2.30475 33.6952 4.02578 34.7738 6.14261C36 8.54911 36 11.6994 36 18C36 24.3006 36 27.4509 34.7738 29.8574C33.6952 31.9742 31.9742 33.6952 29.8574 34.7738C27.4509 36 24.3006 36 18 36C11.6994 36 8.54911 36 6.14261 34.7738C4.02578 33.6952 2.30475 31.9742 1.22618 29.8574C0 27.4509 0 24.3006 0 18Z" fill="#5E657D"/>
<path d="M25.6273 11.3901C24.2378 10.8046 22.7478 10.3732 21.1898 10.1261C21.1615 10.1214 21.1331 10.1333 21.1185 10.1571C20.9269 10.4701 20.7146 10.8785 20.566 11.1994C18.8903 10.969 17.2232 10.969 15.582 11.1994C15.4333 10.8713 15.2133 10.4701 15.0208 10.1571C15.0062 10.1341 14.9779 10.1222 14.9495 10.1261C13.3924 10.3724 11.9024 10.8038 10.512 11.3901C10.5 11.3949 10.4897 11.4028 10.4828 11.4131C7.65651 15.2909 6.88227 19.0733 7.26209 22.8089C7.26381 22.8271 7.27498 22.8446 7.29045 22.8557C9.15515 24.1133 10.9614 24.8768 12.7342 25.3829C12.7626 25.3908 12.7926 25.3813 12.8107 25.3598C13.23 24.8339 13.6038 24.2794 13.9243 23.6962C13.9432 23.6621 13.9252 23.6216 13.8865 23.6081C13.2936 23.4015 12.729 23.1497 12.1859 22.8637C12.143 22.8406 12.1395 22.7842 12.1791 22.7572C12.2933 22.6785 12.4077 22.5967 12.5168 22.5141C12.5365 22.499 12.564 22.4958 12.5873 22.5054C16.1551 24.0013 20.0177 24.0013 23.5435 22.5054C23.5667 22.495 23.5942 22.4982 23.6148 22.5133C23.7239 22.5959 23.8382 22.6785 23.9534 22.7572C23.9929 22.7842 23.9903 22.8406 23.9474 22.8637C23.4043 23.1552 22.8397 23.4015 22.2459 23.6073C22.2073 23.6208 22.1901 23.6621 22.209 23.6962C22.5364 24.2786 22.9102 24.8331 23.3218 25.3591C23.339 25.3813 23.3699 25.3908 23.3983 25.3829C25.1796 24.8768 26.9859 24.1133 28.8506 22.8557C28.8669 22.8446 28.8772 22.8279 28.8789 22.8096C29.3335 18.491 28.1176 14.7395 25.6556 11.4139C25.6496 11.4028 25.6393 11.3949 25.6273 11.3901ZM14.4571 20.5343C13.383 20.5343 12.4979 19.6286 12.4979 18.5164C12.4979 17.4041 13.3658 16.4985 14.4571 16.4985C15.557 16.4985 16.4335 17.4121 16.4163 18.5164C16.4163 19.6286 15.5484 20.5343 14.4571 20.5343ZM21.7011 20.5343C20.627 20.5343 19.7419 19.6286 19.7419 18.5164C19.7419 17.4041 20.6098 16.4985 21.7011 16.4985C22.801 16.4985 23.6775 17.4121 23.6604 18.5164C23.6604 19.6286 22.801 20.5343 21.7011 20.5343Z" fill="white"/>
</svg>
