<svg width="36" height="36" viewBox="0 0 36 36" fill="none" xmlns="http://www.w3.org/2000/svg">
<path d="M0 18C0 11.6994 0 8.54911 1.22618 6.14261C2.30475 4.02578 4.02578 2.30475 6.14261 1.22618C8.54911 0 11.6994 0 18 0C24.3006 0 27.4509 0 29.8574 1.22618C31.9742 2.30475 33.6952 4.02578 34.7738 6.14261C36 8.54911 36 11.6994 36 18C36 24.3006 36 27.4509 34.7738 29.8574C33.6952 31.9742 31.9742 33.6952 29.8574 34.7738C27.4509 36 24.3006 36 18 36C11.6994 36 8.54911 36 6.14261 34.7738C4.02578 33.6952 2.30475 31.9742 1.22618 29.8574C0 27.4509 0 24.3006 0 18Z" fill="#5E657D"/>
<path d="M14.2688 10.1364C14.075 14.8514 13.6511 19.5589 13.132 24.248C13.0632 24.8696 12.6728 26.2494 13.6777 25.9608C16.1446 25.2525 18.8226 25.455 21.2261 24.5967" stroke="white" stroke-width="2.1481" stroke-linecap="round"/>
<path d="M14.405 20.2313C16.8791 19.5918 19.3243 18.9072 21.7716 18.1851" stroke="white" stroke-width="2.1481" stroke-linecap="round"/>
<path d="M14.1323 12.7283C17.2123 11.7992 20.287 10.7804 23.4087 10" stroke="white" stroke-width="2.1481" stroke-linecap="round"/>
</svg>
