<svg width="36" height="36" viewBox="0 0 36 36" fill="none" xmlns="http://www.w3.org/2000/svg">
<path opacity="0.14" d="M28.5 24.2997V14.6669L23.3502 8.94571C21.4966 6.88656 20.5699 5.85699 19.4785 5.47689C18.5198 5.14304 17.4765 5.14312 16.5179 5.47711C15.4265 5.85737 14.4999 6.88708 12.6467 8.9465L7.5 14.6659V24.2997C7.5 26.82 7.5 28.0801 7.99047 29.0427C8.4219 29.8894 9.11031 30.5779 9.95704 31.0093C10.9196 31.4998 12.1798 31.4998 14.7 31.4998H21.3C23.8202 31.4998 25.0804 31.4998 26.043 31.0093C26.8897 30.5779 27.5781 29.8894 28.0095 29.0427C28.5 28.0801 28.5 26.82 28.5 24.2997Z" fill="white"/>
<path d="M7.5 14.6662V24.3C7.5 26.8202 7.5 28.0803 7.99047 29.043C8.4219 29.8897 9.11031 30.5781 9.95704 31.0095C10.9196 31.5 12.1798 31.5 14.7 31.5H21.3C23.8202 31.5 25.0804 31.5 26.043 31.0095C26.8897 30.5781 27.5781 29.8897 28.0095 29.043C28.5 28.0803 28.5 26.8202 28.5 24.3V7.49999M31.5 18L23.3502 8.94595C21.4966 6.88681 20.5699 5.85723 19.4785 5.47714C18.5198 5.14329 17.4765 5.14337 16.5179 5.47735C15.4265 5.85761 14.4999 6.88732 12.6467 8.94674L4.5 18" stroke="white" stroke-width="2" stroke-linecap="round" stroke-linejoin="round"/>
</svg>
