<svg width="24" height="25" viewBox="0 0 24 25" fill="none" xmlns="http://www.w3.org/2000/svg">
<path opacity="0.14" d="M4.21799 4.59202C4 5.01984 4 5.5799 4 6.7V18.3C4 19.4201 4 19.9802 4.21799 20.408C4.40973 20.7843 4.71569 21.0903 5.09202 21.282C5.51984 21.5 6.0799 21.5 7.2 21.5H16.8C17.9201 21.5 18.4802 21.5 18.908 21.282C19.2843 21.0903 19.5903 20.7843 19.782 20.408C20 19.9802 20 19.4201 20 18.3V15.1767L15.795 19.3816C15.2837 19.893 15.028 20.1487 14.7366 20.3516C14.4779 20.5318 14.1989 20.6807 13.9053 20.7953C13.5745 20.9244 13.2198 20.9945 12.5104 21.1347L11.1956 21.3946L11.5136 20.0417C11.6687 19.3821 11.7462 19.0522 11.8752 18.7447C11.9898 18.4717 12.1342 18.2123 12.306 17.9712C12.4995 17.6996 12.7391 17.46 13.2183 16.9809L18.4547 11.7444C18.8752 11.324 19.4555 11.1608 20 11.2548V6.7C20 5.5799 20 5.01984 19.782 4.59202C19.5903 4.21569 19.2843 3.90973 18.908 3.71799C18.4802 3.5 17.9201 3.5 16.8 3.5H7.2C6.0799 3.5 5.51984 3.5 5.09202 3.71799C4.71569 3.90973 4.40973 4.21569 4.21799 4.59202Z" fill="#979BFF"/>
<path d="M7.2 21.5C6.07989 21.5 5.51984 21.5 5.09202 21.282C4.71569 21.0903 4.40973 20.7843 4.21799 20.408C4 19.9802 4 19.4201 4 18.3V6.7C4 5.57989 4 5.01984 4.21799 4.59202C4.40973 4.21569 4.71569 3.90973 5.09202 3.71799C5.51984 3.5 6.0799 3.5 7.2 3.5H16.8C17.9201 3.5 18.4802 3.5 18.908 3.71799C19.2843 3.90973 19.5903 4.21569 19.782 4.59202C20 5.01984 20 5.5799 20 6.7V7.5M8 7.5H14M8 15.5H9M8 11.5H12M11.1954 21.3945L12.5102 21.1347C13.2197 20.9945 13.5744 20.9244 13.9052 20.7952C14.1988 20.6806 14.4778 20.5317 14.7365 20.3516C15.0279 20.1486 15.2836 19.893 15.7949 19.3816L20.9434 14.2332C21.6306 13.5459 21.6306 12.4316 20.9434 11.7444C20.2561 11.0571 19.1418 11.0571 18.4546 11.7444L13.2182 16.9808C12.739 17.46 12.4994 17.6996 12.3059 17.9712C12.1341 18.2123 11.9896 18.4717 11.8751 18.7447C11.7461 19.0522 11.6686 19.382 11.5135 20.0417L11.1954 21.3945Z" stroke="#979BFF" stroke-width="2" stroke-linecap="round" stroke-linejoin="round"/>
</svg>
