<svg width="36" height="36" viewBox="0 0 36 36" fill="none" xmlns="http://www.w3.org/2000/svg">
<path d="M0 16C0 10.3995 0 7.59921 1.08993 5.46009C2.04867 3.57847 3.57847 2.04867 5.46009 1.08993C7.59921 0 10.3995 0 16 0H20C25.6005 0 28.4008 0 30.5399 1.08993C32.4215 2.04867 33.9513 3.57847 34.9101 5.46009C36 7.59921 36 10.3995 36 16V20C36 25.6005 36 28.4008 34.9101 30.5399C33.9513 32.4215 32.4215 33.9513 30.5399 34.9101C28.4008 36 25.6005 36 20 36H16C10.3995 36 7.59921 36 5.46009 34.9101C3.57847 33.9513 2.04867 32.4215 1.08993 30.5399C0 28.4008 0 25.6005 0 20V16Z" fill="#5E657D"/>
<path fill-rule="evenodd" clip-rule="evenodd" d="M8.14778 17.8099C13.3951 15.5237 16.8942 14.0165 18.645 13.2883C23.6438 11.2091 24.6825 10.8479 25.3595 10.836C25.5084 10.8334 25.8413 10.8703 26.057 11.0453C26.2391 11.193 26.2892 11.3926 26.3132 11.5327C26.3371 11.6728 26.367 11.992 26.3433 12.2413C26.0724 15.0875 24.9003 21.9946 24.304 25.1824C24.0516 26.5313 23.5548 26.9836 23.0738 27.0278C22.0285 27.124 21.2348 26.337 20.2224 25.6734C18.6381 24.6349 17.7431 23.9884 16.2054 22.9751C14.4282 21.8039 15.5803 21.1603 16.5931 20.1083C16.8581 19.833 21.4637 15.6439 21.5528 15.2639C21.564 15.2163 21.5743 15.0392 21.4691 14.9456C21.3638 14.8521 21.2085 14.8841 21.0964 14.9095C20.9375 14.9456 18.4067 16.6184 13.5039 19.9279C12.7855 20.4212 12.1349 20.6615 11.5519 20.6489C10.9092 20.635 9.67289 20.2855 8.75384 19.9868C7.62659 19.6204 6.73068 19.4266 6.80869 18.8043C6.84933 18.4802 7.29569 18.1487 8.14778 17.8099Z" fill="#F5F5F5"/>
</svg>
