<svg width="36" height="36" viewBox="0 0 36 36" fill="none" xmlns="http://www.w3.org/2000/svg">
<g opacity="0.4">
<g opacity="0.14">
<path d="M12 15C14.4853 15 16.5 12.9853 16.5 10.5C16.5 8.01472 14.4853 6 12 6C9.51472 6 7.5 8.01472 7.5 10.5C7.5 12.9853 9.51472 15 12 15Z" fill="white"/>
<path d="M4.5 27C4.5 22.8579 7.85786 19.5 12 19.5C16.1421 19.5 19.5 22.8579 19.5 27V30H4.5V27Z" fill="white"/>
</g>
<path d="M19.5 30V27C19.5 22.8579 16.1421 19.5 12 19.5C7.85786 19.5 4.5 22.8579 4.5 27V30H19.5ZM19.5 30H31.5V28.5C31.5 24.0817 28.1421 21 24 21C21.88 21 19.9655 21.9382 18.6014 23.4467M16.5 10.5C16.5 12.9853 14.4853 15 12 15C9.51472 15 7.5 12.9853 7.5 10.5C7.5 8.01472 9.51472 6 12 6C14.4853 6 16.5 8.01472 16.5 10.5ZM27 13.5C27 15.1569 25.6569 16.5 24 16.5C22.3431 16.5 21 15.1569 21 13.5C21 11.8431 22.3431 10.5 24 10.5C25.6569 10.5 27 11.8431 27 13.5Z" stroke="white" stroke-width="2" stroke-linecap="round" stroke-linejoin="round"/>
</g>
</svg>
