<svg width="375" height="388" viewBox="0 0 375 388" fill="none" xmlns="http://www.w3.org/2000/svg">
<rect width="388" height="388" transform="translate(-7)" fill="white"/>
<path fill-rule="evenodd" clip-rule="evenodd" d="M148.548 295.23C202.741 310.47 229.11 251.986 275.544 256.435C300.962 258.871 351.625 271.216 351.512 181.29C351.229 123.235 297.718 108.697 242.536 138.47C226.299 144.82 213.479 142.852 199.56 136.543C185.641 130.233 167.74 102.066 134.001 96.2716C32.4696 78.8336 -54.4035 238.157 148.548 295.23Z" fill="#979BFF"/>
<path fill-rule="evenodd" clip-rule="evenodd" d="M277.331 149.171C278.348 148.676 280.172 149.635 279.114 151.178C276.77 154.594 285.833 161.419 282.924 155.405C282.613 154.762 281.017 150.316 283.274 152.611C285.531 154.907 288.678 165.051 286.643 168.546C284.857 171.613 280.13 173.073 273.678 173.245L273.388 173.252L273.251 173.26C269.447 173.437 266.563 171.083 264.701 166.499L264.612 166.276C262.728 161.477 263.244 157.631 266.292 155.038C266.347 154.99 266.406 154.948 266.469 154.911L266.565 154.859L277.331 149.171Z" fill="white"/>
<path fill-rule="evenodd" clip-rule="evenodd" d="M71.8548 59.3715C71.4111 58.742 70.6922 58.3794 69.9244 58.4735C69.1382 58.5689 68.4807 59.1156 68.2415 59.8699L68.1777 60.0716C68.1293 60.2205 68.0717 60.391 68.0041 60.5828C67.8112 61.1303 67.5773 61.738 67.301 62.3916C66.5156 64.2497 65.5488 66.1042 64.3947 67.8294C61.9048 71.5518 58.9046 74.143 55.3877 75.141C54.838 75.297 54.5188 75.8691 54.6748 76.4188C54.754 76.6979 59.8903 79.2649 65.1338 78.6177C70.2198 77.99 75.4182 74.1557 75.4601 73.8947L75.5242 73.3514L75.5423 73.1694C75.9065 69.2189 75.2151 64.7564 72.5549 60.4336C72.3339 60.0745 72.1006 59.7204 71.8548 59.3715Z" fill="#E7EAEE"/>
<path fill-rule="evenodd" clip-rule="evenodd" d="M82.4386 60.5208L82.4116 60.7297C82.0432 63.4041 81.0107 67.1286 79.1435 69.9381C76.8446 73.397 73.6004 76.0423 70.3402 77.747C65.637 80.2061 60.5176 80.6563 55.4768 77.4616L55.2545 77.3184C52.6056 75.5859 50.5954 74.7517 47.8373 75.4401C45.0792 76.1285 43.7396 78.1373 42.549 80.0011L42.4944 80.0799C42.3035 80.3349 42.0244 80.5114 41.7097 80.5736L36.4803 81.4019L38.3847 83.7676C38.9578 84.4848 39.3652 85.0018 39.6069 85.3186L41.7001 88.0761C47.9383 96.2578 54.6517 104.07 67.7433 101.365L68.187 101.27C71.6555 100.499 74.5634 102.57 78.2116 105.622L78.991 106.278C79.9561 107.095 82.8736 109.667 84.0677 110.905L84.4579 111.315L84.818 111.702C84.893 111.784 84.9645 111.862 85.0323 111.937L85.4045 112.357L85.633 112.087C88.1026 109.114 89.6492 104.586 90.4499 100.851C90.7524 99.4396 90.9261 98.0882 90.9983 96.8414L91.0072 96.679C91.0259 96.3146 91.0343 95.9964 91.0357 95.7306V95.5334L90.6627 95.6427C86.3448 96.8672 81.4868 96.9889 76.7465 96.4421C75.6014 96.31 88.163 86.136 85.5845 72.96C84.9969 69.9571 84.6239 65.942 83.5976 63.2168C83.2739 62.3573 82.9384 61.5713 82.606 60.8685L82.4386 60.5208Z" fill="white"/>
<path fill-rule="evenodd" clip-rule="evenodd" d="M277.877 150.798L267.13 156.023C264.554 158.215 264.116 161.475 265.816 165.803C266.412 167.321 267.905 170.939 267.905 169.518C267.905 169.074 277.877 162.556 279.791 163.193C281.56 163.783 278.382 158.467 277.491 156.023L277.877 150.664L278.173 150.131" fill="#E7EAEE"/>
<path fill-rule="evenodd" clip-rule="evenodd" d="M263.538 154.719C264.253 154.719 260.205 156.622 260.414 160.133C260.622 163.644 263.366 170.114 262.699 170.369C262.031 170.624 260.766 168.737 260.511 168.07C258.925 163.919 258.625 162.225 258.681 159.803C258.756 156.633 260.422 154.719 263.538 154.719Z" fill="#E7EAEE"/>
<ellipse cx="281.549" cy="158.196" rx="2.79368" ry="6.31105" fill="#E7EAEE"/>
<path fill-rule="evenodd" clip-rule="evenodd" d="M86.4133 224.738C86.4133 213.787 87.6298 209.026 100.695 203.05C127.472 192.227 127.472 191.809 178.771 171.976C192.337 166.758 220.938 179.258 233.376 174.019C241.667 170.527 249.421 167.934 256.271 164.47C256.934 168.802 261.222 176.136 262.733 177.396C254.711 179.08 246.951 181.683 239.454 185.206C223.246 192.823 232.851 190.747 207.179 214.956C205.003 217.008 197.009 221.686 185.449 226.558C185.449 226.558 162.169 223.432 152.832 219.548C143.33 215.596 128.932 203.05 128.932 203.05C128.932 203.05 112.139 214.005 102.485 218.93C97.9659 221.235 86.4133 224.738 86.4133 224.738Z" fill="white"/>
<path fill-rule="evenodd" clip-rule="evenodd" d="M86.4133 219.047C86.4133 216.477 86.1418 214.683 86.4133 212.698C87.2986 206.23 90.768 202.92 100.766 198.347C127.544 187.523 127.472 186.119 178.771 166.285C192.337 161.067 220.938 173.567 233.376 168.329C241.667 164.836 249.421 162.243 256.271 158.779C256.29 158.904 255.577 164.823 255.577 164.823C255.577 164.823 238.667 173.753 227.48 175.647C215.595 177.658 199.27 168.329 182.969 172.917C158.145 179.905 100.94 201.869 94.1723 207.373C88.855 211.698 86.4133 219.047 86.4133 219.047Z" fill="#E7EAEE"/>
<path fill-rule="evenodd" clip-rule="evenodd" d="M71.8548 59.3715C71.4111 58.742 70.6922 58.3794 69.9244 58.4735C69.1382 58.5689 68.4807 59.1156 68.2415 59.8699L68.1777 60.0716C68.1293 60.2205 68.0717 60.391 68.0041 60.5828C67.8112 61.1303 67.5773 61.738 67.301 62.3916C66.5156 64.2497 65.5488 66.1042 64.3947 67.8294C61.9048 71.5518 58.9046 74.143 55.3877 75.141C54.838 75.297 54.5188 75.8691 54.6748 76.4188C54.8308 76.9686 63.3757 73.0746 66.1147 68.98C67.3477 67.1367 68.3738 65.1685 69.2071 63.1973C69.4585 62.6026 69.6772 62.0424 69.8647 61.5254L69.9558 61.2706C70.0292 61.0623 70.0923 60.8756 70.1458 60.7107C70.1593 60.5931 70.1719 60.5538 70.1835 60.5927C76.111 64.6477 73.7808 74.7115 74.3501 74.7604C74.8936 74.8071 75.375 74.4248 75.4601 73.8947L75.5242 73.3514L75.5423 73.1694V73.1694C75.9065 69.2189 75.2151 64.7564 72.5549 60.4336C72.3339 60.0745 72.1006 59.7204 71.8548 59.3715Z" fill="#E7EAEE"/>
<path fill-rule="evenodd" clip-rule="evenodd" d="M84.1969 59.3412L84.3275 59.5743L84.4869 59.8735C84.5828 60.0577 84.6906 60.2714 84.8079 60.5128C85.2145 61.3493 85.6251 62.2959 86.0183 63.3398C87.125 66.2784 87.8988 69.4498 88.163 72.7539C88.5214 77.2375 87.8742 81.4691 86.2351 85.3186L86.0947 85.6418C84.763 88.6489 82.8229 91.4042 80.3044 93.8762L80.0548 94.1179L80.2671 94.1282C83.8938 94.2806 87.4804 93.9559 90.6332 92.9506C91.3094 92.7351 92.0465 92.8464 92.6291 93.2514C93.2104 93.6558 93.5715 94.3066 93.608 95.0137L93.6162 95.2333L93.6213 95.5233V95.5233V95.635C93.6213 96.0398 93.6094 96.4936 93.5806 96.991C93.5011 98.3646 93.3107 99.8463 92.9791 101.393C92.0424 105.763 90.1696 109.856 87.1084 113.304C86.7022 113.762 86.1306 114.036 85.5231 114.069L85.3826 114.072C84.7338 114.06 84.1414 113.792 83.7203 113.334L83.4119 112.975L83.2607 112.804V112.804L82.9393 112.447L82.5874 112.067C82.4651 111.937 82.3379 111.803 82.206 111.666C81.082 110.501 79.8416 109.345 78.5242 108.282C74.8724 105.336 71.3501 103.672 68.342 103.852C63.4212 104.148 59.3463 103.918 55.5658 102.857C50.6783 101.486 46.8405 98.7954 44.3008 94.5121L44.1585 94.268C42.8436 91.9749 40.9016 89.3335 38.6109 86.5841C37.903 85.7344 37.2048 84.9265 36.5392 84.1793L36.256 83.8628C35.8026 83.3584 35.4311 82.9565 35.2754 82.7929C34.7006 82.1871 34.5008 81.3179 34.7519 80.5231L34.7888 80.4158C35.0647 79.6731 35.7064 79.1227 36.4884 78.9684L40.6821 78.1396L40.7309 78.0689C42.2315 75.936 44.374 74.1294 47.2199 73.4017C50.1885 72.6426 53.3122 73.3026 56.4581 75.2987L56.6776 75.4401C60.9263 78.2189 65.1377 78.0656 69.1417 75.9721C72.0017 74.4766 74.7276 71.9373 76.7931 68.8294C78.7136 65.9398 79.8552 62.8508 79.9366 60.4127C79.9706 59.3938 80.6734 58.519 81.6617 58.2695C82.651 58.0194 83.6855 58.4575 84.1969 59.3412ZM82.4387 60.5208L82.4116 60.7297C82.0432 63.4041 81.0107 67.1287 79.1435 69.9381C76.8446 73.397 73.6004 76.0423 70.3402 77.747C65.637 80.2061 60.5176 80.6563 55.4769 77.4616L55.2545 77.3185C52.6056 75.5859 50.5955 74.7517 47.8373 75.4401C45.0792 76.1285 43.7396 78.1373 42.549 80.0011L42.4944 80.0799C42.3036 80.3349 42.0244 80.5114 41.7097 80.5736L36.4803 81.4019L38.3847 83.7676C38.9579 84.4848 39.3653 85.0018 39.6069 85.3186L41.7001 88.0761C47.9383 96.2578 54.6518 104.07 67.7433 101.365L68.187 101.27C71.6555 100.499 74.5635 102.57 78.2116 105.622L78.991 106.278C79.9561 107.095 82.8736 109.667 84.0677 110.905L84.458 111.315L84.818 111.702C84.893 111.784 84.9645 111.862 85.0323 111.937L85.4045 112.357L85.633 112.087C88.1026 109.114 89.6492 104.586 90.4499 100.851C90.7525 99.4396 90.9261 98.0882 90.9983 96.8414L91.0072 96.679C91.026 96.3146 91.0344 95.9964 91.0357 95.7306V95.5334L90.6627 95.6427C86.3448 96.8672 81.4868 96.9889 76.7465 96.4421C75.6015 96.31 88.163 86.136 85.5845 72.96C84.9969 69.9571 84.624 65.942 83.5976 63.2168C83.2739 62.3573 82.9384 61.5713 82.606 60.8685L82.4387 60.5208Z" fill="#E7EAEE"/>
<path fill-rule="evenodd" clip-rule="evenodd" d="M49.648 83.808C50.6464 83.808 51.4587 82.9958 51.4587 81.9973C51.4587 80.9989 50.6464 80.1867 49.648 80.1867C48.6496 80.1867 47.8373 80.9989 47.8373 81.9973C47.8373 82.9956 48.6496 83.808 49.648 83.808Z" fill="#00160A"/>
<ellipse cx="51.2" cy="88.7227" rx="2.84533" ry="2.328" fill="#FFB61D"/>
<ellipse cx="51.2" cy="88.7227" rx="2.84533" ry="2.328" fill="#FFB61D"/>
<path fill-rule="evenodd" clip-rule="evenodd" d="M84.1969 59.3412L84.3276 59.5743L84.4869 59.8735C84.5828 60.0577 84.6906 60.2714 84.8079 60.5128C85.2145 61.3493 85.6252 62.2959 86.0183 63.3398C87.125 66.2784 87.8988 69.4498 88.163 72.7539C88.5215 77.2375 87.8742 81.4691 86.2351 85.3186L86.0947 85.6418C84.7631 88.6489 82.8229 91.4042 80.3045 93.8762L80.0548 94.1179L80.2671 94.1282C83.8938 94.2806 87.4804 93.9559 90.6333 92.9506C91.3094 92.7351 92.0465 92.8464 92.6291 93.2514C93.2104 93.6558 93.5715 94.3066 93.608 95.0137L93.6162 95.2333L93.6213 95.5233V95.635C93.6213 96.0398 93.6095 96.4936 93.5806 96.991C93.5011 98.3646 93.3107 99.8463 92.9792 101.393C92.0424 105.763 90.1696 109.856 87.1085 113.304C86.7022 113.762 86.1307 114.036 85.5231 114.069L85.3826 114.072C84.7338 114.06 84.1414 113.792 83.7203 113.334L83.4119 112.975L83.2607 112.804L82.9393 112.447L82.5874 112.067C82.4651 111.937 82.3379 111.803 82.206 111.666C81.082 110.501 79.8416 109.345 78.5242 108.282C74.8724 105.336 71.3502 103.672 68.342 103.852C63.4212 104.148 59.3463 103.918 55.5658 102.857C50.6783 101.486 46.8405 98.7954 44.3008 94.5121L44.1585 94.268C42.8436 91.9749 40.9016 89.3335 38.6109 86.5841C37.903 85.7344 37.2048 84.9265 36.5392 84.1793L36.256 83.8628C35.8026 83.3584 35.4311 82.9565 35.2755 82.7929C34.7006 82.1871 34.5008 81.3179 34.7519 80.5231L34.7888 80.4158C35.0647 79.6731 35.7064 79.1227 36.4885 78.9684L40.6821 78.1396L40.731 78.0689C42.2315 75.936 44.374 74.1294 47.2199 73.4017C50.0213 72.6854 52.9609 73.2328 55.9269 74.9742C59.2122 73.8731 62.033 71.3601 64.3947 67.8294C65.5488 66.1042 66.5156 64.2497 67.301 62.3916C67.5773 61.738 67.8112 61.1303 68.0041 60.5828C68.0717 60.391 68.1293 60.2205 68.1777 60.0716L68.2415 59.8699C68.4807 59.1156 69.1382 58.5689 69.9245 58.4735C70.6922 58.3794 71.4111 58.742 71.8548 59.3715C72.1006 59.7204 72.3339 60.0745 72.5549 60.4336C74.6198 63.7892 75.4985 67.2289 75.618 70.4479C76.029 69.9286 76.4218 69.3882 76.7931 68.8294C78.7136 65.9398 79.8552 62.8508 79.9366 60.4127C79.9706 59.3938 80.6734 58.519 81.6617 58.2695C82.651 58.0194 83.6855 58.4575 84.1969 59.3412ZM69.1417 75.9721C65.2524 78.0056 61.1675 78.2085 57.0426 75.6717C59.8199 74.3876 64.2758 71.7291 66.1147 68.98C67.3477 67.1367 68.3738 65.1685 69.2071 63.1973C69.4585 62.6026 69.6773 62.0424 69.8647 61.5254L69.9558 61.2706C70.0292 61.0623 70.0923 60.8756 70.1458 60.7107C70.1593 60.5931 70.1719 60.5538 70.1835 60.5927C74.1236 63.2881 74.4151 68.6386 74.3348 71.9377C72.751 73.6276 70.9739 75.0141 69.1417 75.9721ZM70.3402 77.747C71.9185 76.9217 73.4931 75.876 74.9585 74.6243C75.0711 74.5587 75.1707 74.4723 75.2516 74.3698C76.6998 73.0923 78.0321 71.6103 79.1435 69.9381C81.0107 67.1287 82.0432 63.4041 82.4116 60.7297L82.4387 60.5208L82.606 60.8685C82.9384 61.5713 83.2739 62.3573 83.5976 63.2168C84.3119 65.1133 84.7097 67.6345 85.0836 70.0046L85.0836 70.0046L85.0837 70.0048C85.247 71.0403 85.4059 72.0469 85.5846 72.96C87.5608 83.0588 80.643 91.3941 77.8196 94.7961C76.9593 95.8326 76.4791 96.4112 76.7465 96.4421C81.4868 96.9889 86.3449 96.8672 90.6627 95.6427L91.0357 95.5334V95.7306C91.0344 95.9964 91.026 96.3146 91.0072 96.679L90.9983 96.8414C90.9261 98.0882 90.7525 99.4396 90.4499 100.851C89.6493 104.586 88.1026 109.114 85.633 112.087L85.4045 112.357L85.0323 111.937C84.9645 111.862 84.893 111.784 84.818 111.702L84.458 111.315L84.0677 110.905C82.8736 109.667 79.9561 107.095 78.991 106.278L78.2116 105.622C74.5635 102.57 71.6555 100.499 68.1871 101.27L67.7433 101.365C54.6518 104.07 47.9383 96.2578 41.7001 88.0761L39.6069 85.3186C39.3653 85.0018 38.9579 84.4848 38.3847 83.7676L36.4803 81.4019L41.7097 80.5736C42.0244 80.5114 42.3036 80.3349 42.4944 80.0799L42.549 80.0011C43.7396 78.1373 45.0792 76.1285 47.8373 75.4401C50.5955 74.7517 52.6056 75.5859 55.2545 77.3185L55.4769 77.4616C60.5176 80.6563 65.637 80.2061 70.3402 77.747ZM277.331 149.171C278.348 148.676 280.172 149.635 279.114 151.178C277.512 153.514 279.291 158.937 280.375 162.241C280.877 163.769 281.23 164.844 281.029 164.948C280.396 165.279 279.615 165.034 279.284 164.401C277.492 160.973 276.464 158.251 276.207 156.182C276.079 155.152 276.051 154.156 276.123 153.195L276.133 153.084L267.85 157.11L267.746 157.206C265.876 158.961 265.053 160.997 266.422 164.604L266.502 164.813C267.988 168.594 270.502 171.307 273.118 171.194L273.322 171.184C279.136 171.067 282.61 169.318 283.85 167.188C285.409 164.509 285.833 161.419 282.924 155.405C282.613 154.762 281.017 150.316 283.274 152.611C285.531 154.907 288.678 165.051 286.643 168.546C284.944 171.464 280.584 172.927 274.609 173.211C274.644 173.363 274.652 173.524 274.628 173.688C274.062 177.528 272.309 179.944 269.378 180.643C267.136 181.178 264.727 180.47 262.52 178.764C254.766 180.429 247.262 182.966 240.004 186.377L238.929 186.886C235.226 188.655 233.103 189.84 231.552 190.993C230.643 191.669 229.892 192.361 229.084 193.252L228.954 193.401C228.562 193.855 227.708 194.898 226.737 196.084L226.735 196.087L226.733 196.088C225.44 197.669 223.938 199.503 223.042 200.54L222.61 201.038C218.967 205.211 214.376 209.947 208.066 215.897L207.889 216.059C205.524 218.174 199.237 221.748 191.397 225.352C213.033 224.583 228.634 216.325 238.349 200.564C238.777 199.87 239.731 199.74 240.329 200.294C257.035 215.766 276.393 222.926 298.476 221.808C320.617 220.687 336.865 214.932 347.27 204.601C347.777 204.097 348.596 204.1 349.099 204.607C349.603 205.114 349.6 205.933 349.093 206.436C338.178 217.275 315.004 225.408 292.278 226.558C270.177 227.677 256.99 218.571 240.128 203.603L239.716 203.235L239.569 203.462C228.89 219.646 205.689 231.449 182.535 231.616L181.81 231.619C158.128 231.619 144.469 220.152 128.492 204.479L128.368 204.356L128.311 204.405C127.842 204.799 127.376 205.191 126.915 205.579C111.944 218.178 100.773 227.579 83.9692 229.98L83.4333 230.055C64.4865 233.889 35.7518 223.678 31.3361 218.673C27.2902 214.087 32.0091 216.937 33.3048 217.72L33.3048 217.72C33.4232 217.791 33.513 217.846 33.565 217.875C46.1051 225.055 60.5635 227.789 77.9103 225.423C80.3044 225.096 82.6833 224.664 85.0469 224.126L85.0196 223.871C84.2622 216.677 84.2578 213.533 85.3492 209.924C86.8337 205.016 90.4377 201.286 96.9209 198.32L98.7061 197.531C106.714 194.002 113.075 191.352 119.672 188.777L120.155 188.589C120.894 188.301 121.644 188.012 122.409 187.718L123.159 187.432C123.43 187.336 126.964 185.936 132.335 183.806C144.727 178.893 166.898 170.104 181.362 164.512C184.491 163.308 188.28 162.908 192.926 163.148L193.326 163.17C196.807 163.375 200.231 163.848 205.844 164.819L210.775 165.682C216.282 166.636 218.951 167.011 222.066 167.233C223.045 167.303 223.976 167.39 224.86 167.472L224.861 167.472C228.136 167.776 230.773 168.021 232.874 167.137C234.737 166.352 236.565 165.594 238.355 164.851L238.367 164.846L238.368 164.845C244.239 162.41 249.714 160.139 254.796 157.613C255.144 155.353 256.034 153.685 257.43 152.586C259.582 150.892 262.629 150.863 265.271 151.891C265.937 152.15 266.266 152.899 266.008 153.565C265.924 153.78 265.386 153.681 264.624 153.541C263.032 153.247 260.464 152.773 259.03 154.619C257.436 156.671 256.906 159.816 258.318 166.009C259.341 170.497 265.976 178.127 268.778 178.127C271.901 178.127 272.632 175.094 273.047 173.374L273.073 173.267C269.357 173.363 266.534 171.012 264.701 166.499L264.612 166.276C262.727 161.477 263.244 157.631 266.292 155.038C266.347 154.99 266.406 154.948 266.469 154.911L266.565 154.859L277.331 149.171ZM260.133 176.426C260.003 176.267 259.873 176.105 259.745 175.939C259.725 175.917 259.704 175.895 259.685 175.873C259.672 175.858 259.659 175.844 259.647 175.83L259.636 175.817C259.627 175.806 259.618 175.796 259.61 175.786C259.544 175.705 259.476 175.624 259.408 175.542L259.248 175.349C258.245 174.145 257.084 172.751 256.175 170.739L256.043 170.446C254.584 167.178 254.41 163.507 254.499 160.48L254.513 160.128L254.436 160.167C248.408 163.15 241.852 166.143 234.766 169.145L233.878 169.52C230.844 170.798 227.055 171.701 222.253 171.391L221.882 171.366C218.602 171.132 215.843 170.74 210.057 169.735L205.738 168.978C193.562 166.87 187.469 166.541 182.448 168.418C182.448 168.418 107.573 196.584 97.9832 200.679C92.151 203.347 90.1723 205.857 87.7604 209.924C86.5129 212.028 86.639 217.832 86.7267 221.863L86.7267 221.864C86.7414 222.54 86.755 223.166 86.7608 223.717C100.919 220.176 114.528 212.815 127.597 201.618C128.112 201.177 128.881 201.208 129.358 201.691C130.415 202.76 131.49 203.792 132.583 204.789L186.501 182.262C186.649 182.201 186.802 182.168 186.953 182.163C187.359 181.971 187.797 181.813 188.267 181.688C192.969 180.438 196.723 182.471 199.317 187.477L204.017 184.049C204.71 183.543 205.695 183.84 205.992 184.645C210.281 196.236 209.032 204.178 201.969 208.01C194.848 211.875 188.654 208.688 183.825 199.029C183.58 198.539 183.677 197.973 184.016 197.591C182.864 192.915 182.651 189.189 183.434 186.491L136.194 207.899C143.258 213.634 151.015 217.959 159.469 220.876C159.663 220.691 159.872 220.532 160.078 220.419C167.2 216.518 184.746 211.962 189.08 210.836L189.08 210.836C189.455 210.739 189.731 210.667 189.893 210.623C191.926 210.079 189.843 211.979 189.229 212.262L189.151 212.295L163.541 222.157C171.16 224.327 179.317 225.411 188.018 225.411C188.513 225.411 189.004 225.407 189.493 225.4L190.066 225.028L190.066 225.027L190.068 225.026L190.07 225.025L190.072 225.024L190.073 225.023L190.073 225.023C195.55 221.463 204.702 215.514 206.292 214.015L207.033 213.314C212.306 208.198 216.23 203.289 219.655 199.005C223.414 194.304 226.571 190.355 230.251 187.705C233.112 185.645 234.149 185.174 236.586 184.068L236.586 184.068L236.587 184.067L236.589 184.067L236.59 184.066L236.593 184.065C237.243 183.769 237.993 183.429 238.904 183.001C245.367 179.964 252.708 178.205 259.598 176.554L260.133 176.426ZM188.932 184.188C192.657 183.197 195.447 184.947 197.574 189.832L197.641 190.165C198.428 194.222 198.09 196.492 197.013 197.096C195.996 197.667 194.994 197.111 193.699 194.78C193.393 194.208 192.701 193.943 192.083 194.187L192.074 194.191L186.396 196.431L186.254 195.808C184.699 188.76 185.712 185.044 188.932 184.188ZM126.337 242.937C126.937 242.55 131.083 240.527 127.391 244.33C123.699 248.132 94.9437 264.262 79.4215 265.155C64.4608 266.016 51.1776 259.768 39.6208 251.591L39.2378 251.318L39.1614 251.416C38.6498 252.065 38.1241 252.653 37.5839 253.182L37.3515 253.404C36.3726 254.324 34.6784 255.364 32.2306 256.573C31.5902 256.889 29.3273 257.18 30.4982 255.986C31.6692 254.792 34.2321 253.072 35.7246 252.087C36.7001 251.442 37.0081 250.689 37.3138 249.942C37.4758 249.545 37.6372 249.151 37.8969 248.775C38.3141 248.171 39.1494 248.035 39.7365 248.475C51.1295 257.014 64.4385 261.566 79.4215 260.704C94.4664 259.838 110.004 253.445 126.337 242.937ZM214.826 251.183C215.351 250.698 215.351 247.243 214.826 247.727C209.015 253.089 196.849 257.805 181.836 258.669C166.804 259.534 154.986 257.171 146.359 251.624C145.758 251.237 142.784 250.215 144.572 252.012C146.359 253.808 166.449 263.181 181.984 262.286L182.45 262.259C197.757 261.325 208.549 256.974 214.826 251.183ZM204.215 187.395L204.137 187.163L200.243 190.004L200.314 190.405C201.097 194.985 200.563 197.979 198.392 199.286L198.278 199.352C196.014 200.622 193.883 199.725 192.102 197.117L192.023 197.001L186.787 199.116L186.908 199.335C190.911 206.558 195.347 208.566 200.567 205.827L200.736 205.736C205.979 202.892 207.27 197.086 204.396 187.958L204.215 187.395ZM51.4587 81.9973C51.4587 82.9958 50.6464 83.808 49.648 83.808C48.6496 83.808 47.8373 82.9956 47.8373 81.9973C47.8373 80.9989 48.6496 80.1867 49.648 80.1867C50.6464 80.1867 51.4587 80.9989 51.4587 81.9973Z" fill="#00160A"/>
</svg>
